<?xml version="1.0" standalone="no"?>
<!DOCTYPE svg PUBLIC "-//W3C//DTD SVG 20010904//EN"
 "http://www.w3.org/TR/2001/REC-SVG-20010904/DTD/svg10.dtd">
<svg version="1.0" xmlns="http://www.w3.org/2000/svg"
 width="16.000000pt" height="16.000000pt" viewBox="0 0 16.000000 16.000000"
 preserveAspectRatio="xMidYMid meet">
<metadata>
Created by potrace 1.11, written by Peter Selinger 2001-2013
</metadata>
<g transform="translate(0.000000,16.000000) scale(0.004000,-0.004000)"
fill="#000000" stroke="none">
<path d="M2390 3856 c-118 -35 -275 -120 -341 -186 -28 -28 -78 -61 -123 -83
-79 -38 -135 -87 -210 -186 -60 -80 -185 -182 -290 -236 -50 -26 -106 -59
-124 -72 l-33 -25 7 -92 c4 -60 11 -94 20 -99 10 -6 12 -19 8 -47 -10 -61 3
-70 106 -70 83 0 87 -1 98 -25 17 -36 15 -55 -8 -100 -29 -56 -27 -110 5 -131
14 -9 22 -20 19 -25 -3 -5 -81 -9 -175 -9 l-169 0 0 -189 0 -188 -47 -69
c-304 -450 -216 -1052 203 -1390 96 -77 267 -165 384 -196 73 -20 109 -23 260
-23 152 0 186 3 260 23 370 101 649 387 742 759 18 71 22 117 23 238 0 91 -5
171 -13 205 -38 154 -90 276 -168 388 l-44 63 0 189 0 189 -147 3 -148 3 -1
67 c-1 38 -10 90 -20 118 -14 40 -15 54 -6 75 17 37 14 74 -9 125 -13 29 -20
63 -19 95 0 28 1 68 2 90 0 44 -18 137 -35 172 -8 17 -6 28 7 45 75 103 140
248 120 268 -6 6 -35 1 -73 -10 -80 -25 -142 -26 -171 -2 -33 26 -18 61 50
117 94 78 235 135 335 135 86 0 83 31 -8 71 -64 27 -198 35 -267 15z m55 -31
c-93 -29 -250 -113 -270 -145 -3 -5 -15 -10 -27 -10 -14 0 -18 -5 -14 -15 3
-9 0 -15 -9 -15 -8 0 -15 -4 -15 -10 0 -5 -7 -10 -16 -10 -8 0 -13 -4 -9 -9 3
-5 1 -12 -5 -16 -13 -8 -50 3 -50 15 0 17 165 137 235 172 76 38 153 65 200
70 58 7 48 -6 -20 -27z m217 -17 c21 -12 18 -13 -42 -19 -114 -11 -225 -59
-308 -134 -47 -43 -54 -46 -89 -39 l-38 7 28 -23 c36 -28 29 -36 -11 -13 -30
17 -60 11 -32 -7 33 -21 50 -35 50 -43 0 -5 -13 1 -29 12 -29 21 -61 28 -61
13 0 -5 29 -23 65 -41 36 -17 65 -36 65 -42 0 -5 -12 -15 -27 -22 -46 -20 -57
-35 -41 -54 11 -15 11 -16 -4 -10 -12 4 -18 2 -18 -8 0 -14 -67 -73 -107 -94
-13 -6 -23 -16 -23 -21 0 -17 36 -11 55 10 10 11 22 20 27 20 17 0 107 84 112
105 3 12 22 30 43 42 42 23 143 40 143 24 0 -6 -19 -33 -42 -62 -42 -50 -82
-73 -150 -86 -16 -3 -28 -9 -28 -14 0 -18 28 -20 66 -4 21 9 49 13 61 10 16
-4 27 2 42 24 12 16 21 32 21 35 0 13 72 104 87 110 24 9 27 0 9 -26 -9 -12
-16 -32 -16 -44 0 -11 -9 -29 -20 -39 -11 -10 -20 -22 -20 -27 0 -17 -93 -119
-121 -133 -21 -11 -40 -12 -85 -5 -80 13 -107 12 -129 -4 -19 -14 -19 -15 -1
-35 24 -27 39 -27 31 -1 -10 33 43 26 88 -11 30 -25 36 -35 31 -55 -5 -20 -2
-26 15 -31 25 -6 45 -70 36 -114 -10 -43 -28 -30 -41 27 -7 33 -16 50 -27 52
-20 4 -21 -2 -5 -31 6 -12 15 -46 19 -74 4 -29 14 -60 23 -68 18 -18 36 -79
35 -115 -1 -25 -1 -25 -9 3 -28 92 -78 149 -73 83 2 -33 -13 -76 -27 -76 -5 0
-10 17 -10 38 0 44 -27 132 -41 132 -13 0 -11 -29 6 -75 15 -43 20 -95 8 -95
-12 0 -55 110 -62 159 -8 58 -31 67 -31 13 0 -24 11 -60 30 -95 33 -62 40
-136 19 -196 -16 -47 -25 -38 -26 30 -2 49 -7 68 -28 95 -26 34 -65 46 -65 20
0 -8 9 -17 20 -21 25 -8 49 -80 32 -97 -9 -9 -12 -8 -12 5 0 9 -4 17 -10 17
-16 0 -12 -18 9 -39 17 -17 18 -21 5 -32 -8 -6 -14 -22 -14 -35 0 -15 -14 -34
-40 -55 -22 -18 -37 -36 -34 -40 3 -5 -2 -9 -10 -9 -11 0 -16 10 -16 31 0 26
3 29 20 24 21 -7 26 4 12 20 -5 6 -14 42 -22 80 -7 39 -16 77 -21 85 -13 25
-22 -12 -9 -44 14 -38 13 -69 -5 -102 -8 -16 -15 -36 -15 -45 0 -9 -9 -24 -21
-35 -17 -16 -22 -16 -30 -4 -6 11 -11 12 -16 4 -5 -7 -19 -14 -33 -15 -21 -4
-25 0 -25 24 0 15 4 26 10 25 5 -2 9 -9 7 -15 -2 -7 5 -13 14 -13 13 0 15 6
10 33 -5 30 -5 31 9 13 23 -31 30 -10 10 33 -12 28 -16 55 -13 91 3 27 2 50
-2 50 -12 0 -20 -29 -20 -74 0 -68 -70 -147 -78 -88 -4 24 -17 29 -28 11 -13
-22 -22 8 -14 50 9 49 -2 91 -23 91 -9 0 -16 -15 -19 -42 -3 -24 -12 -60 -21
-80 -13 -30 -22 -38 -52 -44 -20 -3 -38 -4 -41 -1 -10 10 17 87 42 116 29 35
47 87 38 113 -8 28 -24 11 -24 -26 0 -19 -6 -38 -12 -44 -10 -8 -13 0 -13 33
0 24 -4 47 -8 51 -3 4 -48 7 -99 8 -88 1 -93 3 -96 24 -4 28 17 37 129 52 66
10 90 10 107 1 18 -10 23 -9 28 4 4 9 2 21 -4 27 -13 13 -104 12 -153 -2 -18
-6 -53 -10 -76 -10 -52 0 -59 12 -61 102 l-1 67 126 68 c109 59 139 80 222
163 53 52 116 119 140 149 42 50 150 130 197 145 13 4 37 0 57 -10 l36 -17 63
59 c88 82 239 171 341 199 58 17 143 13 179 -7z m-282 -628 c-8 -5 -23 -10
-32 -10 -27 0 -21 -18 11 -34 37 -19 43 -36 46 -118 1 -56 -1 -66 -12 -57 -24
21 -15 -28 18 -92 19 -39 29 -72 27 -92 -4 -37 -31 -44 -36 -9 -2 12 -8 22
-13 22 -16 0 -10 -30 15 -73 20 -36 22 -50 17 -97 l-6 -55 -14 35 c-10 26 -15
30 -18 17 -3 -10 0 -31 6 -48 11 -31 5 -85 -10 -95 -5 -3 -9 6 -9 21 0 14 -5
34 -11 44 -7 10 -9 30 -5 44 7 29 5 43 -6 40 -4 -2 -10 6 -13 17 -4 11 -10 20
-15 20 -12 0 -4 -103 9 -128 22 -41 14 -50 -44 -54 -52 -3 -68 3 -45 17 6 3
10 20 10 37 0 17 7 36 16 43 15 10 15 16 3 48 -7 20 -11 38 -8 39 2 2 18 13
36 26 l32 22 9 -32 c8 -33 30 -42 24 -10 -16 88 -14 113 8 136 21 24 26 76 5
66 -5 -3 -9 -8 -7 -12 1 -5 -3 -8 -9 -8 -10 0 -9 32 7 143 4 23 2 37 -5 38 -6
1 -16 2 -23 3 -6 0 -13 7 -16 14 -3 10 3 11 25 6 25 -7 27 -6 14 9 -7 10 -20
17 -27 17 -15 0 -19 12 -7 23 3 4 12 2 20 -5 7 -6 16 -8 20 -4 8 8 -59 66 -69
60 -4 -3 -5 -18 -1 -34 3 -19 1 -30 -6 -30 -6 0 -11 11 -11 24 0 14 -11 33
-25 44 -14 11 -25 22 -25 25 0 2 30 3 66 2 49 -1 67 2 71 12 4 11 9 11 17 3 8
-8 7 -13 -4 -20z m-42 -220 c1 -48 -10 -66 -21 -36 -8 19 3 86 13 86 5 0 8
-22 8 -50z m-4 -131 c1 -28 -4 -44 -13 -47 -11 -4 -13 2 -8 27 4 21 1 43 -8
61 -21 40 -19 48 7 23 14 -15 21 -35 22 -64z m-76 -54 c25 -54 9 -95 -35 -95
-28 0 -30 -19 -8 -80 8 -23 15 -55 15 -71 0 -39 -26 -38 -35 1 -4 16 -11 32
-16 35 -12 8 -11 -2 1 -45 7 -25 7 -36 -2 -41 -18 -12 -28 -1 -28 31 0 16 -4
31 -9 34 -17 11 -21 77 -5 102 9 12 15 25 15 28 -1 4 -1 15 -1 26 0 33 18 23
22 -12 4 -33 4 -33 12 10 9 43 22 54 32 27 13 -33 25 -13 18 30 -7 50 6 60 24
20z m-9 -152 c7 -16 8 -30 3 -35 -6 -6 -14 3 -21 23 -13 38 -13 39 -3 39 5 0
14 -12 21 -27z m214 -30 c3 -23 1 -43 -5 -45 -6 -2 -5 -14 3 -31 9 -20 9 -31
1 -39 -8 -8 -15 0 -27 27 -10 26 -12 42 -5 49 5 5 10 30 10 55 0 54 15 44 23
-16z m-819 32 c-4 -8 -10 -15 -15 -15 -4 0 -6 7 -3 15 4 8 10 15 15 15 4 0 6
-7 3 -15z m418 -149 c-8 -13 -20 84 -13 99 3 6 9 -12 13 -39 4 -28 4 -55 0
-60z m53 74 c19 -37 19 -66 0 -73 -19 -8 -24 2 -31 57 -8 54 7 62 31 16z
m-475 -5 c0 -9 9 -15 25 -15 14 0 25 -3 25 -7 0 -5 3 -17 6 -29 5 -18 1 -20
-38 -19 -26 1 -42 7 -40 14 1 6 -9 11 -23 11 -29 0 -33 16 -6 25 11 3 22 12
25 20 7 20 26 19 26 0z m386 -60 c-6 -17 -42 -12 -38 6 2 8 11 22 20 33 17 18
17 18 20 -4 2 -12 1 -28 -2 -35z m-291 5 c3 -5 1 -10 -4 -10 -6 0 -11 5 -11
10 0 6 2 10 4 10 3 0 8 -4 11 -10z m147 -12 c-7 -7 -12 -8 -12 -2 0 6 3 14 7
17 3 4 9 5 12 2 2 -3 -1 -11 -7 -17z m846 -200 l-3 -143 -745 0 -745 0 -3 143
-3 142 751 0 751 0 -3 -142z m-1478 -260 c-65 -81 -132 -211 -166 -324 -25
-80 -27 -105 -28 -249 -1 -138 2 -172 22 -245 52 -190 172 -374 318 -490 96
-76 252 -153 369 -181 131 -32 314 -31 446 4 292 77 531 288 638 567 49 126
64 225 58 374 -9 221 -72 391 -203 552 l-44 54 30 0 c24 0 37 -10 70 -51 91
-115 160 -278 186 -438 80 -491 -232 -971 -715 -1102 -98 -27 -289 -36 -402
-19 -285 41 -562 235 -703 491 -84 153 -119 290 -120 474 -1 199 47 367 151
529 61 96 81 116 115 116 l28 0 -50 -62z m882 -315 c352 -622 396 -699 407
-720 l12 -23 -572 0 -571 0 14 23 c15 22 421 738 507 894 25 46 49 83 52 83 3
0 71 -116 151 -257z"/>
<path d="M1780 3290 c-11 -11 -20 -26 -20 -34 0 -7 -7 -19 -15 -26 -25 -21
-17 -27 38 -34 67 -7 169 5 175 22 2 7 -6 12 -21 12 -25 0 -57 23 -57 40 0 17
-32 40 -56 40 -13 0 -33 -9 -44 -20z m75 -30 c8 -25 -1 -40 -24 -40 -27 0 -42
20 -30 42 13 24 46 23 54 -2z"/>
<path d="M1440 3061 c0 -6 5 -13 10 -16 6 -3 10 1 10 9 0 9 -4 16 -10 16 -5 0
-10 -4 -10 -9z"/>
<path d="M1363 3035 c-22 -9 -33 -21 -33 -35 0 -23 13 -26 29 -6 7 8 26 18 42
21 31 7 41 35 12 35 -10 -1 -33 -7 -50 -15z"/>
<path d="M2190 2953 c0 -5 7 -18 15 -29 15 -18 15 -18 13 5 -3 23 -28 44 -28
24z"/>
<path d="M1830 2854 c0 -30 -8 -59 -21 -81 -23 -36 -17 -62 6 -28 8 11 21 27
29 35 15 16 18 42 9 93 -7 44 -23 31 -23 -19z"/>
<path d="M1928 2853 c4 -32 6 -34 17 -20 16 23 23 21 28 -5 4 -23 4 -23 14 2
11 26 -1 55 -17 45 -5 -3 -11 -1 -15 5 -15 25 -31 9 -27 -27z"/>
<path d="M1783 2830 c1 -39 10 -50 22 -30 8 14 -4 70 -15 70 -5 0 -8 -18 -7
-40z"/>
<path d="M1736 2852 c-3 -6 -1 -14 5 -17 15 -10 25 3 12 16 -7 7 -13 7 -17 1z"/>
<path d="M1605 2788 c-4 -10 -4 -26 0 -35 6 -17 7 -17 16 0 7 11 7 23 0 35 -9
16 -10 16 -16 0z"/>
<path d="M1709 2665 c-13 -22 -19 -65 -9 -65 6 0 13 6 16 14 7 19 1 64 -7 51z"/>
<path d="M1300 2280 c0 -63 2 -70 20 -70 16 0 20 7 20 30 0 34 7 38 26 13 12
-17 14 -17 28 2 15 19 15 19 16 -12 0 -28 4 -33 25 -33 24 0 25 2 25 70 0 67
-1 70 -23 70 -15 0 -29 -9 -37 -25 -7 -14 -17 -25 -21 -25 -3 0 -14 11 -23 25
-9 14 -25 25 -36 25 -18 0 -20 -7 -20 -70z"/>
<path d="M1546 2288 c-14 -35 -26 -66 -26 -70 0 -12 38 -10 45 2 3 6 19 10 36
10 16 0 29 -4 29 -10 0 -5 11 -10 25 -10 14 0 25 2 25 4 0 2 -13 34 -30 70
-24 55 -33 66 -53 66 -20 0 -29 -11 -51 -62z m64 -8 c0 -11 -6 -20 -14 -20 -9
0 -12 7 -9 20 3 11 9 20 14 20 5 0 9 -9 9 -20z"/>
<path d="M1730 2329 c0 -18 5 -21 30 -17 38 6 38 -2 0 -58 l-31 -44 71 0 c56
0 70 3 70 15 0 10 -10 15 -30 15 -33 0 -36 6 -17 35 8 11 22 32 32 48 l17 27
-71 0 c-66 0 -71 -2 -71 -21z"/>
<path d="M1949 2285 c-16 -35 -29 -67 -29 -70 0 -3 11 -5 25 -5 14 0 25 5 25
10 0 6 13 10 29 10 17 0 33 -4 36 -10 6 -10 45 -14 45 -5 0 2 -12 34 -27 70
-22 54 -30 65 -50 65 -20 0 -29 -11 -54 -65z m64 -5 c4 -15 0 -20 -13 -20 -13
0 -17 5 -13 20 3 11 9 20 13 20 4 0 10 -9 13 -20z"/>
<path d="M2140 2280 c0 -68 1 -70 25 -70 21 0 25 5 25 32 0 30 1 31 15 12 14
-18 16 -18 29 -1 19 25 26 21 26 -13 0 -23 4 -30 20 -30 18 0 20 7 20 70 0 63
-2 70 -20 70 -11 0 -27 -11 -36 -25 -9 -14 -20 -25 -23 -25 -4 0 -14 11 -21
25 -8 16 -22 25 -37 25 -22 0 -23 -3 -23 -70z"/>
<path d="M2389 2285 c-16 -35 -29 -67 -29 -70 0 -3 11 -5 25 -5 14 0 25 5 25
10 0 6 13 10 29 10 17 0 33 -4 36 -10 7 -12 45 -14 45 -2 0 4 -12 35 -26 70
-23 52 -31 62 -51 62 -20 0 -29 -11 -54 -65z m64 -5 c4 -15 0 -20 -13 -20 -13
0 -17 5 -13 20 3 11 9 20 13 20 4 0 10 -9 13 -20z"/>
<path d="M2592 2338 c-19 -19 -14 -56 8 -68 11 -6 20 -15 20 -21 0 -6 -9 -8
-20 -4 -16 5 -20 2 -20 -14 0 -17 6 -21 33 -21 60 0 76 43 30 80 l-28 21 28
-6 c33 -7 38 18 8 35 -26 13 -44 13 -59 -2z"/>
<path d="M1962 1858 c-37 -62 -473 -840 -479 -854 -4 -11 72 -13 502 -13 386
0 505 3 502 12 -3 7 -117 209 -255 450 l-250 438 -20 -33z m232 -806 c-111 -1
-297 -1 -412 0 l-210 3 172 305 c94 168 186 331 204 364 l34 59 207 -364 208
-364 -203 -3z"/>
<path d="M1947 1342 c-21 -23 -22 -56 -1 -76 39 -40 105 4 85 56 -15 40 -57
50 -84 20z"/>
<path d="M1026 706 c-9 -14 -23 -37 -31 -51 -20 -32 -11 -49 16 -34 26 14 34
6 20 -20 -16 -29 1 -34 51 -15 52 20 62 29 54 43 -5 7 -15 7 -32 1 -23 -9 -24
-8 -14 10 15 28 4 41 -27 34 -23 -6 -24 -5 -12 14 10 16 11 24 2 33 -8 8 -15
4 -27 -15z"/>
<path d="M2902 718 c-9 -9 -8 -16 5 -30 15 -17 15 -20 0 -35 -14 -14 -18 -14
-32 -3 -14 12 -18 11 -26 -1 -14 -21 68 -94 88 -78 11 10 11 15 -4 31 -15 17
-15 20 0 35 13 14 19 14 32 3 12 -10 19 -10 27 -2 13 13 -7 40 -53 73 -19 14
-29 15 -37 7z"/>
<path d="M2745 545 c-66 -65 11 -142 82 -81 27 24 28 24 9 45 -11 12 -25 21
-32 21 -22 0 -28 -22 -10 -35 14 -11 15 -13 2 -18 -20 -8 -47 19 -39 39 3 8
14 19 24 25 11 5 17 14 14 20 -10 15 -24 11 -50 -16z"/>
<path d="M1162 518 l-33 -42 29 -29 c33 -33 66 -29 36 4 -20 23 -11 38 11 19
22 -19 31 -4 11 19 -10 11 -13 22 -8 25 5 3 15 -1 22 -9 14 -17 30 -20 30 -5
0 11 -50 60 -60 59 -3 0 -20 -19 -38 -41z"/>
<path d="M2605 440 c-6 -10 42 -100 54 -100 4 0 12 5 18 11 9 9 5 23 -18 55
-30 44 -43 52 -54 34z"/>
<path d="M2501 381 c-8 -5 -11 -16 -7 -27 4 -10 1 -21 -6 -26 -20 -12 -38 -9
-38 7 0 16 -25 21 -34 6 -9 -14 32 -101 47 -101 21 0 27 11 17 31 -8 14 -6 21
11 30 17 9 23 8 30 -2 5 -8 9 -17 9 -21 0 -14 30 4 30 18 0 13 -37 94 -43 94
-1 0 -8 -4 -16 -9z"/>
<path d="M1417 362 c-35 -38 -5 -102 48 -102 32 0 32 14 -1 28 -18 9 -24 19
-22 35 3 23 25 27 61 12 28 -12 21 20 -8 33 -36 17 -59 15 -78 -6z"/>
<path d="M1589 266 l-16 -54 37 -11 c48 -14 50 -14 50 4 0 9 -9 15 -21 15 -18
0 -20 4 -13 33 11 50 10 61 -6 64 -10 2 -20 -13 -31 -51z"/>
<path d="M1756 243 c-4 -21 -9 -45 -12 -54 -3 -10 3 -18 15 -22 16 -4 20 2 26
32 3 20 9 46 12 59 4 17 1 22 -15 22 -15 0 -21 -9 -26 -37z"/>
<path d="M2138 273 c-30 -5 -32 -12 -22 -75 6 -36 9 -38 43 -38 21 0 46 6 56
14 17 13 18 17 6 40 -8 14 -11 29 -8 33 10 10 -13 33 -32 32 -9 -1 -28 -4 -43
-6z m40 -31 c2 -7 -3 -12 -12 -12 -9 0 -16 7 -16 16 0 17 22 14 28 -4z m12
-47 c0 -8 -7 -15 -15 -15 -8 0 -15 7 -15 15 0 8 7 15 15 15 8 0 15 -7 15 -15z"/>
<path d="M1880 205 c0 -48 2 -55 20 -55 15 0 20 7 20 27 0 25 1 25 19 9 16
-15 19 -15 24 -1 11 26 30 18 23 -10 -5 -20 -3 -25 14 -25 18 0 20 6 20 55 0
62 -17 73 -50 33 l-19 -23 -16 23 c-9 12 -25 22 -36 22 -16 0 -19 -7 -19 -55z"/>
</g>
</svg>
